<?xml version="1.0" encoding="UTF-8"?>
<svg xmlns="http://www.w3.org/2000/svg" style="display:none">
  <defs>
    <!-- NOTE: IDs are expected to match rubrum_cairo::glyphs::*_svg_symbol_id(...) -->

    <!-- Bodies -->
    <symbol id="rb-body-sun" viewBox="-1 -1 14 14" overflow="visible">
      <path style="fill:none;stroke:#fff;stroke-width:.6;stroke-linecap:butt;stroke-linejoin:miter;stroke-miterlimit:10;stroke-dasharray:none;stroke-opacity:1" d="M10 6c0-2.207-1.793-4-4-4S2 3.793 2 6s1.793 4 4 4 4-1.793 4-4z"/>
      <path style="fill:#fff;fill-opacity:1;fill-rule:nonzero;stroke:none;stroke-width:1;stroke-opacity:1" d="M6 5.102a.899.899 0 1 0 0 1.797.899.899 0 0 0 0-1.797Z"/>
    </symbol>

    <symbol id="rb-body-moon" viewBox="-1 -1 14 14" overflow="visible">
      <path d="M8.5 1c-2.7617188 0-5 2.2382812-5 5s2.2382812 5 5 5C6.7148438 9.96875 5.6132812 8.0625 5.6132812 6S6.7148438 2.03125 8.5 1Zm0 0" style="fill:none;stroke:#fff;stroke-width:.6;stroke-linecap:round;stroke-linejoin:round;stroke-miterlimit:1.5;stroke-opacity:1;stroke-dasharray:none"/>
    </symbol>

    <symbol id="rb-body-mercury" viewBox="-1 -1 14 14" overflow="visible">
      <path style="fill:none;stroke:#fff;stroke-width:.6;stroke-linecap:round;stroke-linejoin:round;stroke-miterlimit:10;stroke-opacity:1;stroke-dasharray:none" d="M8 5a1.999 1.999 0 1 0-4 0 1.999 1.999 0 1 0 4 0ZM4 1a1.999 1.999 0 1 0 4 0M6 11V7M4 9h4"/>
    </symbol>

    <symbol id="rb-body-venus" viewBox="-1 -1 14 14" overflow="visible">
      <path style="fill:none;stroke:#fff;stroke-width:.6;stroke-miterlimit:4;stroke-dasharray:none;stroke-opacity:1;stroke-linejoin:round;stroke-linecap:round" d="M6 11V7M4 9h4m1-5a3 3 0 0 1-3 3 3 3 0 0 1-3-3 3 3 0 0 1 3-3 3 3 0 0 1 3 3Z"/>
    </symbol>

    <symbol id="rb-body-mars" viewBox="-1 -1 14 14" overflow="visible">
      <path style="fill:none;stroke:#fff;stroke-width:.6;stroke-linecap:round;stroke-linejoin:round;stroke-miterlimit:10;stroke-opacity:1;stroke-dasharray:none" d="M9 7c0-2.2070312-1.7929688-4-4-4-2.2070312 0-4 1.7929688-4 4 0 2.2070312 1.7929688 4 4 4 2.2070312 0 4-1.7929688 4-4ZM7.828125 4.171875 11 1M9.2304688 1H11v1.7695312"/>
    </symbol>

    <symbol id="rb-body-jupiter" viewBox="-1 -1 14 14" overflow="visible">
      <path style="fill:none;stroke:#fff;stroke-width:.6;stroke-linecap:round;stroke-linejoin:round;stroke-miterlimit:1.5;stroke-opacity:1;stroke-dasharray:none" d="M2.25 1a4.33 4.33 0 0 1 0 7.5h7.5M7.25 6v5"/>
    </symbol>

    <symbol id="rb-body-saturn" viewBox="-1 -1 14 14" overflow="visible">
      <path style="fill:none;stroke:#fff;stroke-width:.6;stroke-linecap:round;stroke-linejoin:round;stroke-miterlimit:10;stroke-dasharray:none;stroke-opacity:1" d="M3 3h4M5 1v5a1.999 1.999 0 1 1 3.414 1.414C7.508 8.32 7 9.72 7 11"/>
    </symbol>

    <symbol id="rb-body-uranus" viewBox="-1 -1 14 14" overflow="visible">
      <path d="M7.25 9.75A1.249 1.249 0 1 0 6 11a1.25 1.25 0 0 0 1.25-1.25ZM6 8.5V2.25M3.5 1v5m5-5v5m-5-2.5h5" style="fill:none;stroke:#fff;stroke-width:.6;stroke-linecap:round;stroke-linejoin:round;stroke-miterlimit:10;stroke-opacity:1;stroke-dasharray:none"/>
    </symbol>

    <symbol id="rb-body-neptune" viewBox="-1 -1 14 14" overflow="visible">
      <path style="fill:none;stroke:#fff;stroke-width:.60000002;stroke-linecap:round;stroke-linejoin:round;stroke-miterlimit:10;stroke-dasharray:none;stroke-opacity:1" d="M6 11V1M3.5 7.25h5M2.25 1a3.751 3.751 0 0 0 7.5 0"/>
    </symbol>

    <symbol id="rb-body-pluto" viewBox="-1 -1 14 14" overflow="visible">
      <path style="fill:none;stroke:#fff;stroke-width:.6;stroke-linecap:round;stroke-linejoin:round;stroke-miterlimit:10;stroke-dasharray:none;stroke-opacity:1" d="M2.25 3a3.751 3.751 0 0 0 7.5 0M6 11V6.75M3.5 8.875h5M8 3a1.999 1.999 0 1 0-4 0 1.999 1.999 0 1 0 4 0zm0 0"/>
    </symbol>

    <symbol id="rb-body-chiron" viewBox="-1 -1 14 14" overflow="visible">
      <path style="fill:none;stroke:#fff;stroke-width:.6;stroke-linecap:round;stroke-linejoin:round;stroke-miterlimit:4;stroke-dasharray:none;stroke-opacity:1" d="M5.967 1C6.015 3.5 6 6 6 8.5m1.745-6.791L6 3.5l1.792 1.745m.23 4.505C8.023 9.059 7.12 8.5 6 8.5c-1.119 0-2.023.559-2.023 1.25S4.881 11 6 11c1.119 0 2.023-.559 2.023-1.25Z"/>
    </symbol>

    <!-- Signs -->
    <symbol id="rb-sign-aries" viewBox="0 0 12 12" overflow="visible">
      <path style="clip-rule:nonzero;fill:none;stroke:#fff;stroke-width:.6;stroke-linecap:round;stroke-linejoin:round;stroke-miterlimit:4;stroke-dasharray:none;stroke-opacity:1" d="M1.732 5.418A2.5 2.5 0 1 1 6 3.65a2.5 2.5 0 1 1 4.268 1.768M6 3.65v7.5"/>
    </symbol>

    <symbol id="rb-sign-taurus" viewBox="0 0 12 12" overflow="visible">
      <path style="fill:none;stroke:#fff;stroke-width:.6;stroke-linecap:round;stroke-linejoin:round;stroke-miterlimit:4;stroke-dasharray:none;stroke-opacity:1" d="M4.5 1A1.5 1.5 0 0 0 3 2.5c0 .828.672 1.5 1.5 1.5M7.5 1A1.5 1.5 0 0 1 9 2.5c0 .828-.672 1.5-1.5 1.5M2 7a4 4 0 1 0 8 0 4 4 0 1 0-8 0Z"/>
    </symbol>

    <symbol id="rb-sign-gemini" viewBox="0 0 12 12" overflow="visible">
      <path style="fill:none;stroke:#fff;stroke-width:.6;stroke-linecap:round;stroke-linejoin:round;stroke-miterlimit:4;stroke-dasharray:none;stroke-opacity:1" d="M3 1h6M3 11h6M4 1.75c1 1.25 1 2.5 1 4.25s0 3-1 4.25M8 1.75c-1 1.25-1 2.5-1 4.25s0 3 1 4.25"/>
    </symbol>

    <symbol id="rb-sign-cancer" viewBox="0 0 12 12" overflow="visible">
      <path style="fill:none;stroke:#fff;stroke-width:.6;stroke-linecap:round;stroke-linejoin:round;stroke-miterlimit:4;stroke-dasharray:none;stroke-opacity:1" d="M7 4a3 3 0 0 0-6 0 2 2 0 1 0 2-2M5 8a3 3 0 0 0 6 0 2 2 0 1 0-2 2"/>
    </symbol>

    <symbol id="rb-sign-leo" viewBox="0 0 12 12" overflow="visible">
      <path style="fill:none;stroke:#fff;stroke-width:.6;stroke-linecap:round;stroke-linejoin:round;stroke-miterlimit:4;stroke-dasharray:none;stroke-opacity:1" d="M3.25 2.5A1.75 1.75 0 1 1 6.75 2.5 1.75 1.75 0 1 1 3.25 2.5ZM6 11c-2 0-3-1.25-3-3 0-2.2 1.2-3.6 3.5-3.6 2.2 0 2.5 1.2 2.5 2.1 0 1.2-.9 2.1-2.1 2.1-.7 0-1.4-.3-1.8-.8"/>
    </symbol>

    <symbol id="rb-sign-virgo" viewBox="0 0 12 12" overflow="visible">
      <path style="fill:none;stroke:#fff;stroke-width:.6;stroke-linecap:round;stroke-linejoin:round;stroke-miterlimit:4;stroke-dasharray:none;stroke-opacity:1" d="M1.75 2v7M4.25 2v7c0 1 .75 1.75 1.75 1.75.75 0 1.25-.5 1.25-1.25V2m2.5 5.5c.5-.5 1.5-.5 1.5.5 0 1.5-1.5 2.5-3 3"/>
    </symbol>

    <symbol id="rb-sign-libra" viewBox="0 0 12 12" overflow="visible">
      <path style="fill:none;stroke:#fff;stroke-width:.6;stroke-linecap:round;stroke-linejoin:round;stroke-miterlimit:4;stroke-dasharray:none;stroke-opacity:1" d="M2 9.5h8M3 7.5h6M4 7.5a2 2 0 1 1 4 0"/>
    </symbol>

    <symbol id="rb-sign-scorpio" viewBox="0 0 12 12" overflow="visible">
      <path style="fill:none;stroke:#fff;stroke-width:.6;stroke-linecap:round;stroke-linejoin:round;stroke-miterlimit:4;stroke-dasharray:none;stroke-opacity:1" d="M2 2v7M4.5 2v7c0 1 .75 1.75 1.75 1.75.75 0 1.25-.5 1.25-1.25V2m1.75 6.5c1 0 1.5.5 1.5 1.25S10 11 9 11"/>
    </symbol>

    <symbol id="rb-sign-sagittarius" viewBox="0 0 12 12" overflow="visible">
      <path style="fill:none;stroke:#fff;stroke-width:.6;stroke-linecap:round;stroke-linejoin:round;stroke-miterlimit:4;stroke-dasharray:none;stroke-opacity:1" d="M9 3V1H7m2 0L5 5m0-2v6m-2-2h6"/>
    </symbol>

    <symbol id="rb-sign-capricorn" viewBox="0 0 12 12" overflow="visible">
      <path style="fill:none;stroke:#fff;stroke-width:.6;stroke-linecap:round;stroke-linejoin:round;stroke-miterlimit:4;stroke-dasharray:none;stroke-opacity:1" d="M2 2v4c0 2 1 3 2.5 3 1.4 0 2.5-1.1 2.5-2.5V2m3 4.5c.4-.3 1.5-.2 1.5.9 0 1.1-1.1 1.6-1.9 1.6-.7 0-1.4-.3-1.9-.8"/>
    </symbol>

    <symbol id="rb-sign-aquarius" viewBox="0 0 12 12" overflow="visible">
      <path style="fill:none;stroke:#fff;stroke-width:.6;stroke-linecap:round;stroke-linejoin:round;stroke-miterlimit:4;stroke-dasharray:none;stroke-opacity:1" d="M2 4l2-2 2 2 2-2 2 2M2 9l2-2 2 2 2-2 2 2"/>
    </symbol>

    <symbol id="rb-sign-pisces" viewBox="0 0 12 12" overflow="visible">
      <path style="fill:none;stroke:#fff;stroke-width:.6;stroke-linecap:round;stroke-linejoin:round;stroke-miterlimit:4;stroke-dasharray:none;stroke-opacity:1" d="M4 2c0 3 1 4 2 4s2-1 2-4M4 10c0-3 1-4 2-4s2 1 2 4M2.5 6h7"/>
    </symbol>

  </defs>
</svg>

